<?xml version="1.0" encoding="UTF-8"?>
<svg version="1.1" xmlns="http://www.w3.org/2000/svg" width="887" height="163">
<path d="M0 0 C6.27 0 12.54 0 19 0 C27.15039062 18.18164062 27.15039062 18.18164062 35.30078125 36.36328125 C35.82937744 37.54245117 36.35797363 38.72162109 36.90258789 39.93652344 C37.97861565 42.3369057 39.05462438 44.7372965 40.13061523 47.13769531 C42.78976457 53.06985764 45.44920678 59.00188825 48.109375 64.93359375 C52.8846793 75.58264158 57.65783093 86.23262876 62.421875 96.88671875 C62.80128235 97.7351384 63.1806897 98.58355804 63.57159424 99.45768738 C65.44044639 103.63686746 67.30892026 107.81621596 69.17675781 111.99584961 C72.75891769 120.00898913 76.35151922 128.01675571 80 136 C87.90977441 119.09072959 95.67489419 102.12515336 103.28282166 85.07754517 C107.46118566 75.71992043 111.6784164 66.37972243 115.88824463 57.03622437 C120.24043111 47.37533075 124.58061021 37.70929858 128.89453125 28.03125 C129.28939728 27.14598129 129.68426331 26.26071259 130.09109497 25.34861755 C131.99091938 21.08919083 133.88854355 16.82881109 135.78222656 12.56665039 C136.46018561 11.04569072 137.13824008 9.52477358 137.81640625 8.00390625 C138.12592728 7.30491211 138.4354483 6.60591797 138.75434875 5.88574219 C140.88642191 1.11357809 140.88642191 1.11357809 142 0 C143.34267413 -0.08631874 144.68974322 -0.10706473 146.03515625 -0.09765625 C146.84404297 -0.09443359 147.65292969 -0.09121094 148.48632812 -0.08789062 C149.7615332 -0.07532227 149.7615332 -0.07532227 151.0625 -0.0625 C151.91650391 -0.05798828 152.77050781 -0.05347656 153.65039062 -0.04882812 C155.76695663 -0.03700373 157.88348685 -0.01906769 160 0 C161.60213572 31.61975185 162.84785877 63.24823147 163.99157715 94.88757324 C164.17206853 99.85893023 164.3555526 104.83017511 164.53901863 109.80142307 C164.7169863 114.63213111 164.89332747 119.46289742 165.06914902 124.29368401 C165.15242835 126.57774421 165.23615183 128.86178826 165.32034683 131.1458149 C165.43670309 134.31012557 165.55091742 137.47450654 165.66455078 140.63891602 C165.71594208 142.02024971 165.71594208 142.02024971 165.76837158 143.42948914 C165.96410877 148.95696644 166.03010059 154.46900617 166 160 C160.39 160 154.78 160 149 160 C148.11290953 157.33872858 147.83736035 155.61908533 147.73461914 152.87458801 C147.68423996 151.61572029 147.68423996 151.61572029 147.63284302 150.3314209 C147.60060638 149.41356812 147.56836975 148.49571533 147.53515625 147.55004883 C147.49760223 146.58044724 147.46004822 145.61084564 147.4213562 144.61186218 C147.29767576 141.3937257 147.18015887 138.17539303 147.0625 134.95703125 C146.97708314 132.71276705 146.89122049 130.46851978 146.80493164 128.22428894 C146.57799648 122.29742936 146.35600905 116.3703955 146.13537598 110.44329834 C145.78340034 101.00327362 145.42499732 91.56349403 145.06466675 82.12378502 C144.94036223 78.84502789 144.81876682 75.56617879 144.69750977 72.28730774 C144.28078532 61.17898135 143.77331405 50.08977822 143 39 C129.23330698 68.56280124 129.23330698 68.56280124 115.79760742 98.27685547 C110.82617471 109.43037659 105.74264325 120.53160589 100.6418457 131.62646484 C96.32006922 141.03927776 92.12834558 150.50053814 88 160 C82.39 160 76.78 160 71 160 C60.37849879 136.4215096 49.78041081 112.83282981 39.22955322 89.22264099 C36.56568141 83.26261126 33.89669711 77.30488239 31.2265625 71.34765625 C30.05169097 68.72539664 28.87691408 66.10309465 27.70217896 63.48077393 C26.9493262 61.80072994 26.19613834 60.12083607 25.44259644 58.44110107 C24.39963201 56.11608453 23.35789092 53.79052344 22.31640625 51.46484375 C22.00889435 50.78019547 21.70138245 50.09554718 21.384552 49.39015198 C19.84700261 45.95349819 18.38682516 42.49978197 17 39 C15.3476305 64.33952868 14.13259248 89.69159827 13.00842285 115.05938721 C12.78226934 120.14970344 12.55309429 125.23988369 12.32421875 130.33007812 C11.87995502 140.21992618 11.43916118 150.10992405 11 160 C5.06 160 -0.88 160 -7 160 C-6.23611146 141.94397805 -5.4711794 123.88800069 -4.7049036 105.83207989 C-4.34905019 97.44642498 -3.9935508 89.06075536 -3.63891602 80.67504883 C-3.32943664 73.35711082 -3.01926128 66.03920269 -2.70828623 58.72132808 C-2.54399784 54.85473819 -2.38003343 50.98813524 -2.21690559 47.1214962 C-1.553844 31.40992677 -0.86733013 15.70191431 0 0 Z " fill="#79ACC9" transform="translate(7,1)"/>
<path d="M0 0 C81.55865922 0 81.55865922 0 99 14 C108.66765577 24.12108016 111.59403166 35.83588965 111.4050293 49.46679688 C110.95726459 61.55515366 106.99259567 73.4842844 98 82 C85.11857328 92.98854531 68.61967406 96.38017195 52.08203125 96.1953125 C50.77171936 96.19229126 50.77171936 96.19229126 49.43493652 96.18920898 C46.22740289 96.17888595 43.01994515 96.15096563 39.8125 96.125 C29.0153125 96.063125 29.0153125 96.063125 18 96 C18 117.45 18 138.9 18 161 C12.06 161 6.12 161 0 161 C0 107.87 0 54.74 0 0 Z M18 15 C18 36.78 18 58.56 18 81 C23.94 81.061875 29.88 81.12375 36 81.1875 C37.83820312 81.21481201 39.67640625 81.24212402 41.5703125 81.27026367 C56.17590787 81.39585822 72.68993197 81.06446716 84.27734375 71.02734375 C91.32853082 63.79764561 93.09765802 56.85780934 93.375 46.9375 C93.12969887 37.88098211 91.39254001 31.45827386 85.08203125 24.7890625 C67.74879473 9.89483675 37.57446216 15 18 15 Z " fill="#7AACC9" transform="translate(616,0)"/>
<path d="M0 0 C10.39415984 8.66540145 16.39250346 18.7080412 18.4765625 32.17578125 C19.20510712 40.53322886 19.39666225 49.07918875 17.75 57.3125 C-8.98 57.3125 -35.71 57.3125 -63.25 57.3125 C-59.18547254 75.24860869 -59.18547254 75.24860869 -47.25 87.3125 C-36.59205481 92.95706319 -24.70974916 94.0399867 -12.90234375 91.62890625 C-4.82035617 88.88944211 1.80556626 84.31711447 6.75 77.3125 C10.20201639 78.78971422 12.39961936 80.75044001 15 83.4375 C15.70640625 84.16195312 16.4128125 84.88640625 17.140625 85.6328125 C17.67171875 86.18710938 18.2028125 86.74140625 18.75 87.3125 C12.20823846 98.04098893 3.13326679 104.61082623 -8.8984375 108.48828125 C-22.12926835 111.49895578 -38.86463597 111.03603944 -51.25 105.3125 C-52.05953125 104.95027344 -52.8690625 104.58804688 -53.703125 104.21484375 C-65.99774475 98.04662466 -73.56927541 88.00465023 -78.37890625 75.33984375 C-83.44750163 57.53854501 -82.15370755 37.26374234 -73.9375 20.66015625 C-66.67428018 7.85083652 -56.23586448 -1.713337 -41.94921875 -6.02734375 C-27.81847658 -8.54909183 -12.14441636 -8.35219439 0 0 Z M-54.25 20.3125 C-59.23300922 27.72732383 -61.24658621 34.28177591 -62.25 43.3125 C-40.8 43.3125 -19.35 43.3125 2.75 43.3125 C2.75 33.32792219 2.11015079 23.48739371 -4.71484375 15.625 C-11.18656169 9.53397135 -18.45119616 7.09910599 -27.25 6.8125 C-38.70313354 7.22154048 -46.82108194 11.54190443 -54.25 20.3125 Z " fill="#79ACC9" transform="translate(570.25,53.6875)"/>
<path d="M0 0 C10.99554012 8.9542464 16.67527127 22.21176875 18.50390625 36.0390625 C19.92765139 54.32552453 17.89573987 72.72335616 6.43359375 87.75390625 C-2.00218188 97.52706094 -12.4490443 106.2102194 -25.85522461 107.21606445 C-44.01213525 107.64306572 -57.68405547 106.83682915 -71.6796875 94.04296875 C-83.91227979 81.44039257 -86.54914663 64.89851024 -86.49609375 48.0390625 C-85.59414523 31.18598746 -80.20909856 15.59740163 -68.04296875 3.625 C-48.86179978 -12.47994376 -20.83932917 -14.25689186 0 0 Z M-58.49609375 19.0390625 C-68.73912814 31.34638188 -68.83355799 47.86774066 -67.49609375 63.0390625 C-65.56145439 73.79913532 -60.27862524 81.35542443 -51.62109375 87.8125 C-43.68471678 92.39342347 -33.34577497 92.2632342 -24.546875 90.421875 C-15.26574615 87.12904122 -8.96180166 80.85981569 -4.55859375 72.1640625 C1.72810545 58.84600213 2.70611999 42.93585605 -1.45703125 28.75390625 C-5.03193736 19.41345607 -10.17878425 12.93941314 -18.93359375 8.1640625 C-33.79175513 3.32719515 -48.14580034 7.88785353 -58.49609375 19.0390625 Z " fill="#79ACC9" transform="translate(287.49609375,55.9609375)"/>
<path d="M0 0 C18.20199893 -1.60402648 18.20199893 -1.60402648 23.71875 1.55859375 C25.83445279 4.23570013 27.36615752 7.00065924 29 10 C30.56958342 12.35728274 32.19000024 14.67498636 33.81323242 16.99560547 C35.54054412 19.46856616 37.23968139 21.95845857 38.9296875 24.45703125 C39.45788086 25.23771973 39.98607422 26.0184082 40.53027344 26.82275391 C41.43310389 28.16020274 42.33500957 29.49827708 43.23535156 30.83740234 C44.21390946 32.29114655 45.20023771 33.739653 46.1875 35.1875 C46.69667969 35.94417969 47.20585938 36.70085937 47.73046875 37.48046875 C48.14941406 37.98191406 48.56835938 38.48335937 49 39 C49.66 39 50.32 39 51 39 C52.85540024 36.57724597 54.59539908 34.14376196 56.3125 31.625 C57.38962534 30.07092124 58.4677872 28.51756049 59.546875 26.96484375 C60.39088867 25.74643799 60.39088867 25.74643799 61.25195312 24.50341797 C64.14209052 20.364386 67.1011797 16.27576136 70.0625 12.1875 C70.88391479 11.05078857 70.88391479 11.05078857 71.72192383 9.89111328 C73.14453062 7.92483652 74.5671427 5.95881982 76 4 C76.4547168 3.27111572 76.90943359 2.54223145 77.37792969 1.79125977 C79 0 79 0 81.17651367 -0.45410156 C82.40978394 -0.42268066 82.40978394 -0.42268066 83.66796875 -0.390625 C84.56064453 -0.37773438 85.45332031 -0.36484375 86.37304688 -0.3515625 C87.30181641 -0.31804688 88.23058594 -0.28453125 89.1875 -0.25 C90.12787109 -0.23195312 91.06824219 -0.21390625 92.03710938 -0.1953125 C94.35909889 -0.1481655 96.6790369 -0.08238231 99 0 C97.53938926 4.32626551 95.33620545 7.37878019 92.5 10.9375 C88.51958389 15.99908807 84.69798366 21.14048512 80.97827148 26.39599609 C78.53377018 29.84890783 76.07208062 33.2878266 73.5859375 36.7109375 C73.00175049 37.51571533 72.41756348 38.32049316 71.81567383 39.1496582 C70.67117273 40.72480154 69.52524035 42.29890618 68.37768555 43.87182617 C65.74694893 47.49710465 63.21661139 51.09969075 61 55 C67.22612336 64.15826562 73.56128244 73.22275646 80.06860352 82.18359375 C84.47658424 88.25795014 88.81782459 94.37703963 93.13061523 100.51928711 C93.59540283 101.18065674 94.06019043 101.84202637 94.5390625 102.5234375 C94.96735352 103.13413086 95.39564453 103.74482422 95.83691406 104.37402344 C96.80297314 105.72455943 97.81409043 107.0427286 98.8359375 108.3515625 C100 110 100 110 100 112 C93.05140607 113.15300736 85.84730962 114.02972911 79 112 C73.68083576 108.17755405 70.64876498 102.14547213 67.48828125 96.54541016 C65.07627709 92.420155 62.24570391 88.61111948 59.4375 84.75 C58.47460064 83.39293502 57.51478135 82.03367741 56.55859375 80.671875 C56.12272949 80.05248047 55.68686523 79.43308594 55.23779297 78.79492188 C54.05254855 77.07620058 52.91642083 75.33265429 51.78515625 73.578125 C50.2553077 70.92733571 50.2553077 70.92733571 48 70 C47.75894531 70.53367187 47.51789062 71.06734375 47.26953125 71.6171875 C45.65860032 74.64078093 43.69572486 77.35885005 41.6875 80.125 C41.25743652 80.72248047 40.82737305 81.31996094 40.38427734 81.93554688 C38.92617668 83.95945456 37.46350774 85.97999909 36 88 C34.2818855 90.37323011 32.56402076 92.74663899 30.84692383 95.12060547 C29.72181902 96.67530155 28.59540963 98.22905458 27.4675293 99.78173828 C26.94457275 100.50345215 26.42161621 101.22516602 25.8828125 101.96875 C25.37556641 102.65372559 24.86832031 103.33870117 24.34570312 104.04443359 C22.80469954 106.18025771 22.80469954 106.18025771 21.2890625 109.5078125 C18.57471986 112.46301831 17.88327773 112.40889951 14.015625 112.5859375 C12.09287571 112.54615648 10.17057281 112.4747368 8.25 112.375 C7.26644531 112.34792969 6.28289063 112.32085937 5.26953125 112.29296875 C2.84412577 112.22232587 0.42318055 112.12376119 -2 112 C2.5103619 104.40619069 7.62307914 97.45423175 13.02148438 90.47949219 C17.75989617 84.34886662 22.29205356 78.09629637 26.75439453 71.76318359 C29.03091889 68.54071027 31.32965401 65.33407889 33.625 62.125 C34.47144243 60.94016721 35.31780523 59.75527754 36.1640625 58.5703125 C36.76992188 57.72210938 37.37578125 56.87390625 38 56 C35.03205521 50.5635242 31.66784319 45.61052954 28 40.625 C26.83778569 39.03049866 25.67634565 37.43543273 24.515625 35.83984375 C23.92974609 35.03530762 23.34386719 34.23077148 22.74023438 33.40185547 C18.090482 26.98431003 13.54831163 20.48962531 9 14 C8.53980469 13.34467285 8.07960938 12.6893457 7.60546875 12.01416016 C6.31740749 10.17811605 5.03292665 8.33963438 3.75 6.5 C3.02296875 5.4584375 2.2959375 4.416875 1.546875 3.34375 C0 1 0 1 0 0 Z " fill="#79ACC9" transform="translate(787,49)"/>
<path d="M0 0 C6.27 0 12.54 0 19 0 C21.58380008 8.1041061 24.16661066 16.20852577 26.74787045 24.31344128 C27.94763894 28.08047975 29.14777342 31.84740064 30.34887695 35.61401367 C36.65248292 55.38300235 42.88498539 75.17177222 49 95 C55.38219312 79.24762801 61.46641014 63.38866933 67.5 47.5 C73.53395539 31.6103681 79.63619426 15.76082731 86 0 C91.94 0 97.88 0 104 0 C99.80332099 11.22929565 95.55494379 22.43680341 91.25 33.625 C90.93751312 34.43762299 90.62502625 35.25024597 90.30307007 36.0874939 C84.6886451 50.68169238 79.01202648 65.25134904 73.3125 79.8125 C72.92509644 80.80235901 72.53769287 81.79221802 72.1385498 82.81207275 C71.02659078 85.65230644 69.91389617 88.49225039 68.80078125 91.33203125 C68.475298 92.16284714 68.14981476 92.99366302 67.81446838 93.84965515 C66.87893875 96.23414592 65.93955397 98.61709253 65 101 C64.64022064 101.92017914 64.28044128 102.84035828 63.90975952 103.78842163 C63.55177277 104.69701935 63.19378601 105.60561707 62.82495117 106.54174805 C62.49959885 107.37103317 62.17424652 108.2003183 61.83903503 109.05473328 C61 111 61 111 60 112 C58.21928754 112.08726223 56.4351686 112.10699041 54.65234375 112.09765625 C53.57275391 112.09443359 52.49316406 112.09121094 51.38085938 112.08789062 C50.24455078 112.07951172 49.10824219 112.07113281 47.9375 112.0625 C46.79732422 112.05798828 45.65714844 112.05347656 44.48242188 112.04882812 C41.65489649 112.03699747 38.8274736 112.0205141 36 112 C28.81461379 90.58636504 21.72903442 69.14025366 14.69415665 47.67675018 C14.06793975 45.76659293 13.44129805 43.85657553 12.81454468 41.94659424 C0 2.88250541 0 2.88250541 0 0 Z " fill="#7AACC8" transform="translate(325,49)"/>
<path d="M0 0 C5.94 0 11.88 0 18 0 C18 36.96 18 73.92 18 112 C12.06 112 6.12 112 0 112 C0 75.04 0 38.08 0 0 Z " fill="#7BACC7" transform="translate(749,49)"/>
<path d="M0 0 C5.94 0 11.88 0 18 0 C18 36.96 18 73.92 18 112 C12.06 112 6.12 112 0 112 C0 75.04 0 38.08 0 0 Z " fill="#79ADC9" transform="translate(444,49)"/>
<path d="M0 0 C2.89683868 2.2015974 4.39297231 3.78594462 6 7 C6.34717992 12.29449372 6.52421718 15.74663444 3 20 C-0.43287022 22.84437818 -3.52575411 23.58221861 -8 23.4296875 C-11.61068185 22.65395507 -13.45265225 20.60947818 -16 18 C-17.73348019 14.53303962 -17.47699379 10.79051063 -17 7 C-12.89184079 -0.66856385 -8.27086749 -1.09800838 0 0 Z " fill="#79ACC6" transform="translate(764,1)"/>
<path d="M0 0 C2.89683868 2.2015974 4.39297231 3.78594462 6 7 C6.34717992 12.29449372 6.52421718 15.74663444 3 20 C-0.43287022 22.84437818 -3.52575411 23.58221861 -8 23.4296875 C-11.61068185 22.65395507 -13.45265225 20.60947818 -16 18 C-17.73348019 14.53303962 -17.47699379 10.79051063 -17 7 C-12.89184079 -0.66856385 -8.27086749 -1.09800838 0 0 Z " fill="#79ACC8" transform="translate(459,1)"/>
<path d="M0 0 C0.66 0.99 1.32 1.98 2 3 C-0.64 5.64 -3.28 8.28 -6 11 C-6 7.39426104 -5.18292538 6.58663434 -3 3.8125 C-2.443125 3.09707031 -1.88625 2.38164062 -1.3125 1.64453125 C-0.879375 1.10183594 -0.44625 0.55914062 0 0 Z " fill="#82AABD" transform="translate(796,145)"/>
<path d="M0 0 C0.33 0 0.66 0 1 0 C1.3125 2.1875 1.3125 2.1875 1 5 C-1.5 7.8125 -1.5 7.8125 -4 10 C-4.66 9.67 -5.32 9.34 -6 9 C-5.02501855 7.4972763 -4.04490611 5.99788037 -3.0625 4.5 C-2.51722656 3.6646875 -1.97195313 2.829375 -1.41015625 1.96875 C-0.94480469 1.3190625 -0.47945312 0.669375 0 0 Z " fill="#7FAABE" transform="translate(862,54)"/>
<path d="M0 0 C1.32 0 2.64 0 4 0 C3.43628586 3.26954202 2.50037734 4.82575883 0 7 C-0.66 6.67 -1.32 6.34 -2 6 C-1.34 4.02 -0.68 2.04 0 0 Z " fill="#87A8BA" transform="translate(460,16)"/>
<path d="M0 0 C1.32 0 2.64 0 4 0 C3.875 1.875 3.875 1.875 3 4 C-0.0625 5.25 -0.0625 5.25 -3 6 C-2.67 5.34 -2.34 4.68 -2 4 C-1.34 4 -0.68 4 0 4 C0 2.68 0 1.36 0 0 Z " fill="#70AFD4" transform="translate(492,98)"/>
<path d="M0 0 C0.99 0.33 1.98 0.66 3 1 C0.525 4.465 0.525 4.465 -2 8 C-2.33 6.68 -2.66 5.36 -3 4 C-1.5625 1.75 -1.5625 1.75 0 0 Z " fill="#87A7BE" transform="translate(718,72)"/>
<path d="M0 0 C2.32101984 3.48152976 2.69903201 5.86169011 3 10 C2.34 10.66 1.68 11.32 1 12 C0.03929566 9.11788698 -0.10581883 7.30149956 -0.0625 4.3125 C-0.05347656 3.50425781 -0.04445313 2.69601563 -0.03515625 1.86328125 C-0.02355469 1.24839844 -0.01195312 0.63351563 0 0 Z " fill="#85A8BD" transform="translate(724,30)"/>
<path d="M0 0 C0.99 0.33 1.98 0.66 3 1 C0.03 4.96 0.03 4.96 -3 9 C-3.33 8.01 -3.66 7.02 -4 6 C-2.0625 2.8125 -2.0625 2.8125 0 0 Z " fill="#7FACBD" transform="translate(818,139)"/>
</svg>
